<svg xmlns="http://www.w3.org/2000/svg" xmlns:xlink="http://www.w3.org/1999/xlink" version="1.1" x="0px" y="0px" viewBox="0 0 100 125" enable-background="new 0 0 100 100" xml:space="preserve"><polygon points="12.43,7.913 11.885,10.966 11.85,10.973 8.594,11.577 11.885,12.188 12.484,15.544 13.083,12.188 13.109,12.184   16.374,11.577 13.083,10.966 12.521,7.82 12.484,7.61 "/><polygon points="14.087,49.607 13.541,52.661 13.506,52.668 10.25,53.272 13.541,53.883 14.141,57.239 14.74,53.883 14.766,53.878   18.031,53.272 14.74,52.661 14.178,49.514 14.141,49.305 "/><polygon points="11.397,26.534 10.487,31.632 10.429,31.643 4.992,32.652 10.487,33.672 11.488,39.276 12.488,33.672 12.531,33.664   17.983,32.652 12.488,31.632 11.55,26.379 11.488,26.029 "/><polygon points="31.897,21.034 30.987,26.132 30.929,26.143 25.492,27.152 30.987,28.172 31.988,33.776 32.988,28.172   33.031,28.164 38.483,27.152 32.988,26.132 32.05,20.879 31.988,20.529 "/><polygon points="64.588,28.939 63.678,34.037 63.62,34.048 58.183,35.057 63.678,36.077 64.679,41.681 65.679,36.077 65.722,36.069   71.174,35.057 65.679,34.037 64.741,28.784 64.679,28.434 "/><polygon points="30.039,64.94 29.572,67.558 29.542,67.564 26.75,68.082 29.572,68.606 30.085,71.483 30.599,68.606 30.621,68.602   33.421,68.082 30.599,67.558 30.117,64.86 30.085,64.68 "/><polygon points="54.381,57.716 54.052,59.558 54.031,59.562 52.067,59.926 54.052,60.295 54.413,62.319 54.775,60.295 54.79,60.292   56.76,59.926 54.775,59.558 54.436,57.66 54.413,57.534 "/><polygon points="78.628,27.306 78.3,29.148 78.279,29.152 76.315,29.516 78.3,29.885 78.661,31.909 79.022,29.885 79.038,29.882   81.007,29.516 79.022,29.148 78.684,27.25 78.661,27.124 "/><polygon points="77.325,83.139 76.701,86.636 76.661,86.643 72.932,87.335 76.701,88.035 77.387,91.878 78.073,88.035   78.103,88.029 81.842,87.335 78.073,86.636 77.43,83.032 77.387,82.793 "/><polygon points="27.647,8.972 27.318,10.814 27.297,10.818 25.333,11.182 27.318,11.551 27.68,13.575 28.041,11.551 28.057,11.548   30.026,11.182 28.041,10.814 27.702,8.916 27.68,8.79 "/><polygon points="28.949,87.775 28.621,89.617 28.599,89.621 26.636,89.985 28.621,90.354 28.982,92.378 29.343,90.354   29.359,90.351 31.328,89.985 29.343,89.617 29.005,87.719 28.982,87.592 "/><polygon points="45.137,43.665 43.421,53.276 43.311,53.297 33.062,55.199 43.421,57.122 45.307,67.685 47.192,57.122   47.274,57.107 57.552,55.199 47.192,53.276 45.424,43.372 45.307,42.713 "/><polygon points="89.022,5.648 87.55,13.894 87.455,13.912 78.661,15.544 87.55,17.194 89.168,26.258 90.786,17.194 90.856,17.181   99.674,15.544 90.786,13.894 89.269,5.396 89.168,4.831 "/><polygon points="14.05,79.21 13.14,84.308 13.082,84.319 7.645,85.328 13.14,86.348 14.141,91.951 15.141,86.348 15.184,86.34   20.636,85.328 15.141,84.308 14.203,79.054 14.141,78.705 "/><polygon points="71.058,58.405 70.148,63.504 70.089,63.515 64.653,64.524 70.148,65.544 71.148,71.147 72.148,65.544   72.191,65.536 77.643,64.524 72.148,63.504 71.21,58.25 71.148,57.9 "/><polygon points="89.078,65.029 88.167,70.127 88.109,70.138 82.672,71.147 88.167,72.167 89.168,77.77 90.168,72.167 90.211,72.159   95.663,71.147 90.168,70.127 89.23,64.873 89.168,64.524 "/><polygon points="46.214,81.026 45.574,84.611 45.533,84.619 41.71,85.328 45.574,86.045 46.277,89.985 46.981,86.045 47.011,86.04   50.844,85.328 46.981,84.611 46.321,80.917 46.277,80.671 "/><polygon points="60.035,15.52 59.395,19.105 59.353,19.113 55.531,19.822 59.395,20.539 60.098,24.479 60.801,20.539 60.832,20.534   64.665,19.822 60.801,19.105 60.142,15.411 60.098,15.165 "/><polygon points="89.119,37.753 88.632,40.484 88.6,40.49 85.688,41.031 88.632,41.577 89.168,44.579 89.704,41.577 89.727,41.573   92.647,41.031 89.704,40.484 89.201,37.67 89.168,37.482 "/><text x="0" y="115" fill="#000000" font-size="5px" font-weight="bold" font-family="'Helvetica Neue', Helvetica, Arial-Unicode, Arial, Sans-serif">Created by Marie Van den Broeck</text><text x="0" y="120" fill="#000000" font-size="5px" font-weight="bold" font-family="'Helvetica Neue', Helvetica, Arial-Unicode, Arial, Sans-serif">from the Noun Project</text></svg>