<svg xmlns="http://www.w3.org/2000/svg" xmlns:xlink="http://www.w3.org/1999/xlink" version="1.1" x="0px" y="0px" viewBox="0 0 100 125" enable-background="new 0 0 100 100" xml:space="preserve"><metadata><?xpacket begin="&#65279;" id="W5M0MpCehiHzreSzNTczkc9d"?><x:xmpmeta xmlns:x="adobe:ns:meta/" x:xmptk="Adobe XMP Core 5.6-c011 79.156289, 2014/03/31-23:39:12        "/><?xpacket end="w"?></metadata><g><g><path d="M51.2441406,59.340332c-5.7900391,0-10.5-4.7104492-10.5-10.5s4.7099609-10.5,10.5-10.5s10.5,4.7104492,10.5,10.5    S57.0341797,59.340332,51.2441406,59.340332z M51.2441406,39.340332c-5.2382812,0-9.5,4.2617188-9.5,9.5s4.2617188,9.5,9.5,9.5    s9.5-4.2617188,9.5-9.5S56.4824219,39.340332,51.2441406,39.340332z"/></g><g><path d="M51.2441406,55.7314453c-3.7998047,0-6.8916016-3.0913086-6.8916016-6.8911133s3.0917969-6.8911133,6.8916016-6.8911133    s6.890625,3.0913086,6.890625,6.8911133S55.0439453,55.7314453,51.2441406,55.7314453z M51.2441406,42.9492188    c-3.2490234,0-5.8916016,2.6425781-5.8916016,5.8911133s2.6425781,5.8911133,5.8916016,5.8911133    c3.2480469,0,5.890625-2.6425781,5.890625-5.8911133S54.4921875,42.9492188,51.2441406,42.9492188z"/></g><g><g><rect x="42.0913773" y="72.585022" transform="matrix(-0.9659916 -0.2585734 0.2585734 -0.9659916 62.5546951 172.0525818)" width="1.0008354" height="18.6551437"/></g><g><rect x="59.4429398" y="7.4439945" transform="matrix(-0.9659916 -0.2585734 0.2585734 -0.9659916 113.4118652 49.229763)" width="1.0008354" height="19.4254875"/></g><g><rect x="37.0867691" y="70.0682678" transform="matrix(-0.8658274 -0.5003427 0.5003427 -0.8658274 33.4391212 155.6291962)" width="0.9993133" height="6.5255733"/></g><g><rect x="64.20298" y="23.393692" transform="matrix(-0.8658274 -0.5003427 0.5003427 -0.8658274 107.5330353 81.563736)" width="0.9993133" height="5.9401565"/></g><g><rect x="26.5557175" y="63.7125549" transform="matrix(-0.7071068 -0.7071068 0.7071068 -0.7071068 -6.0559573 145.2566833)" width="0.9998932" height="20.3400288"/></g><g><rect x="75.0684128" y="14.9333868" transform="matrix(-0.7071068 -0.7071068 0.7071068 -0.7071068 111.0638809 96.7444)" width="0.9998932" height="20.8734608"/></g><g><rect x="24.6981621" y="58.6987076" transform="matrix(-0.4999197 -0.8660718 0.8660718 -0.4999197 -18.2766724 118.9326706)" width="1.0001602" height="12.0884218"/></g><g><rect x="76.7474823" y="28.6350288" transform="matrix(-0.4999197 -0.8660718 0.8660718 -0.4999197 85.8192596 118.9373474)" width="1.0001602" height="12.1142206"/></g><g><rect x="19.2665291" y="49.5876465" transform="matrix(-0.2597283 -0.9656817 0.9656817 -0.2597283 -31.2518635 92.3388672)" width="1.0001431" height="17.1206093"/></g><g><rect x="83.0419159" y="31.5941792" transform="matrix(-0.2597283 -0.9656817 0.9656817 -0.2597283 65.5899734 132.3985748)" width="1.000145" height="18.930294"/></g><g><rect x="7" y="49" width="20" height="1"/></g><g><rect x="75" y="49" width="6" height="1"/></g><g><rect x="21.0100288" y="42.084156" transform="matrix(-0.9659133 -0.2588659 0.2588659 -0.9659133 37.3054161 90.0807266)" width="7.1469364" height="1.000145"/></g><g><rect x="74.1382904" y="57.4154549" transform="matrix(-0.9659233 -0.2588283 0.2588283 -0.9659233 145.8248444 135.0299683)" width="15.3259659" height="1.000145"/></g><g><rect x="13.450676" y="32.67033" transform="matrix(-0.8660256 -0.4999996 0.4999996 -0.8660256 25.4960537 73.1724625)" width="18.2011871" height="1.0001602"/></g><g><rect x="70.4875183" y="66.8727264" transform="matrix(-0.8660324 -0.4999879 0.4999879 -0.8660324 118.9409256 166.6148376)" width="22.6089478" height="1.0001602"/></g><g><rect x="30.0789528" y="30.523735" transform="matrix(-0.7071567 -0.7070569 0.7070569 -0.7071567 33.5820961 75.956131)" width="4.88311" height="0.9998932"/></g><g><rect x="65.9914017" y="71.4956741" transform="matrix(-0.7071068 -0.7071068 0.7071068 -0.7071068 74.5512543 174.8713837)" width="15.0025415" height="0.9998932"/></g><g><rect x="25.734108" y="20.6517105" transform="matrix(-0.5000122 -0.8660184 0.8660184 -0.5000122 33.7676697 61.7981911)" width="17.9780712" height="0.9993153"/></g><g><rect x="60.5138931" y="74.6888199" transform="matrix(-0.4999753 -0.8660397 0.8660397 -0.4999753 33.7642441 169.8713989)" width="10.8149872" height="0.9993134"/></g><g><rect x="35.952713" y="19.0913811" transform="matrix(-0.2588119 -0.9659277 0.9659277 -0.2588119 35.3865891 66.3368835)" width="14.3836365" height="1.0008335"/></g><g><rect x="50.0162048" y="82.0635529" transform="matrix(-0.2587898 -0.9659337 0.9659337 -0.2587898 -4.2011838 161.9041443)" width="20.0037231" height="1.0008316"/></g><g><rect x="51" y="11" width="1" height="14"/></g><g><rect x="51" y="73" width="1" height="12"/></g></g></g><text x="0" y="115" fill="#000000" font-size="5px" font-weight="bold" font-family="'Helvetica Neue', Helvetica, Arial-Unicode, Arial, Sans-serif">Created by 23 icons</text><text x="0" y="120" fill="#000000" font-size="5px" font-weight="bold" font-family="'Helvetica Neue', Helvetica, Arial-Unicode, Arial, Sans-serif">from the Noun Project</text></svg>