<svg xmlns="http://www.w3.org/2000/svg" xmlns:xlink="http://www.w3.org/1999/xlink" version="1.1" x="0px" y="0px" viewBox="0 0 100 125" enable-background="new 0 0 100 100" xml:space="preserve"><g><g><path d="M50,19.364c23.857,0,43.197,15.092,43.197,33.708c0,9.738-3.462,20.002-13.753,21.895    c-1.528,0.281-2.851,0.401-4.022,0.401c-6.751,0-8.546-3.972-16.323-3.973c-0.71,0-1.469,0.033-2.286,0.105    c-10.711,0.946-6.036,9.136-23.154,9.136c-18.743,0-26.855-16.64-26.855-27.564C6.803,34.455,26.143,19.363,50,19.364 M50,15.364    L50,15.364c-12.426,0-24.147,3.807-33.006,10.719C7.843,33.224,2.803,42.809,2.803,53.072c0,7.001,2.715,14.612,7.262,20.36    c4.043,5.111,11.418,11.204,23.594,11.204c10.544,0,14.269-2.846,17.731-6.283c1.681-1.669,2.607-2.588,5.774-2.868    c0.675-0.06,1.325-0.09,1.934-0.09c3.187,0,5.036,0.813,7.178,1.754c2.367,1.04,5.05,2.219,9.146,2.219    c1.485,0,3.038-0.153,4.746-0.468c10.663-1.961,17.029-11.616,17.029-25.828C97.197,32.28,76.024,15.364,50,15.364L50,15.364    L50,15.364z"/></g><g><circle cx="66.894" cy="51.812" r="12.444"/></g><g><path d="M75.158,72.814c-0.538,0-1.02-0.092-1.421-0.295c-0.84-0.424-1.271-1.27-1.186-2.321c0.093-1.128,1.229-1.897,2.543-2.789    c1.142-0.774,2.562-1.737,2.733-2.673c0.023-0.127,0.095-0.513-0.349-1.146c-0.272-0.383-2.122,0.821-3.347,1.615    c-2.395,1.552-5.376,3.483-8.874,3.825c-7.044,0.701-10.23-5.402-10.361-5.662l-0.047-0.105    c-2.233-6.048-5.135-10.706-6.012-10.476c-0.279,0.534,0.683,3.447,1.2,5.013c1.044,3.158,1.945,5.886,0.668,7.162    c-0.611,0.61-1.444,0.762-2.286,0.412c-2.533-1.049-5.367-7.081-5.367-13.585c0-8.281,4.429-14.052,8.403-14.052    c0.894,0,1.329,0.412,1.537,0.757c0.586,0.974-0.083,2.237-0.858,3.7c-0.342,0.647-0.957,1.809-0.991,2.292    c0.063,0.013,0.164,0.025,0.312,0.025c0.701,0,1.207-0.935,1.975-2.46c1.023-2.033,2.425-4.818,5.727-5.984    c4.173-1.473,7.631-0.873,10.153-0.436c2.058,0.356,3.258,0.527,3.976-0.132c0.527-0.485,0.672-0.833,0.637-0.983    c-0.055-0.229-0.559-0.734-2.097-1.169c-4.625-1.308-13.263-0.619-15.76,1.879c-0.391,0.391-1.023,0.391-1.414,0    s-0.391-1.023,0-1.414c3.292-3.292,13.018-3.72,17.718-2.39c2.043,0.578,3.22,1.462,3.498,2.63    c0.231,0.973-0.182,1.955-1.229,2.918c-1.477,1.358-3.421,1.021-5.671,0.631c-2.434-0.423-5.463-0.949-9.146,0.351    c-2.543,0.898-3.64,3.076-4.606,4.998c-0.881,1.751-1.792,3.561-3.761,3.561c-0.982,0-1.67-0.316-2.046-0.94    c-0.705-1.172,0.103-2.697,0.958-4.312c0.222-0.419,0.548-1.036,0.725-1.476c-2.648,0.472-6.04,5.048-6.04,12.006    c0,5.42,2.074,9.876,3.546,11.31c0.39,0.379,0.637,0.481,0.699,0.46c0.342-0.585-0.635-3.543-1.16-5.132    c-0.941-2.85-1.755-5.311-0.975-6.684c0.269-0.474,0.698-0.788,1.24-0.909c3.322-0.73,6.891,7.868,8.299,11.673    c0.288,0.534,2.898,5.058,8.36,4.532c3.014-0.295,5.768-2.079,7.98-3.514c2.418-1.566,4.701-3.045,6.073-1.083    c0.612,0.875,0.84,1.768,0.677,2.654c-0.323,1.759-2.052,2.931-3.577,3.965c-0.622,0.423-1.562,1.061-1.683,1.353    c-0.016,0.258,0.062,0.297,0.104,0.318c0.904,0.453,4.318-0.673,7.181-3.171c1.079-0.941,3.503-3.378,2.716-5.66    c-0.116-0.337-0.212-0.413-0.213-0.414c-0.07-0.027-0.358,0.002-0.549,0.021c-0.727,0.074-1.94,0.196-3.097-0.959    c-1.003-1.003-0.745-2.665-0.389-4.967c0.229-1.485,0.49-3.169,0.49-5.034c0-2.163-1.296-4.734-2.439-7.003    c-1.213-2.407-2.171-4.307-1.572-5.683c0.583-1.338,1.385-2.017,2.383-2.017c0.001,0,0.001,0,0.001,0    c2.06,0,3.81,3.056,5.804,7.643l0.256,0.584c1.688,3.739,1.185,7.317,0.852,9.684c-0.105,0.75-0.246,1.754-0.173,2.132    c0.44-0.005,0.84-0.152,1.14-0.515c1.299-1.566,1.021-6.19,0.541-8.736c-0.103-0.543,0.254-1.066,0.797-1.168    c0.544-0.099,1.067,0.255,1.168,0.797c0.146,0.769,1.35,7.589-0.966,10.383c-0.672,0.811-1.59,1.238-2.655,1.238    c-0.812,0-1.28-0.343-1.53-0.631c-0.717-0.825-0.543-2.064-0.302-3.779c0.318-2.268,0.755-5.372-0.693-8.583l-0.268-0.609    c-2.651-6.1-3.752-6.44-3.963-6.44c-0.003,0-0.005,0-0.008,0c0.002,0-0.236,0.097-0.549,0.815    c-0.225,0.515,0.828,2.603,1.524,3.984c1.243,2.468,2.653,5.265,2.653,7.903c0,2.019-0.285,3.86-0.514,5.339    c-0.194,1.25-0.459,2.962-0.174,3.247c0.485,0.484,0.861,0.445,1.48,0.383c0.765-0.075,2.182-0.221,2.854,1.73    c0.833,2.417-0.366,5.267-3.291,7.819C80.813,71.097,77.474,72.814,75.158,72.814z"/></g><g><path d="M29.347,76.369c-1.858,0-4.346-1.826-6.056-3.536c-2.612-2.612-4.547-5.949-2.981-7.515    c0.253-0.253,0.711-0.555,1.458-0.555c1.857,0,4.345,1.827,6.055,3.537c2.612,2.612,4.548,5.948,2.982,7.514    C30.553,76.067,30.094,76.369,29.347,76.369z M21.75,66.764c-0.032,0.546,0.684,2.383,2.956,4.655    c1.917,1.916,3.822,2.95,4.642,2.95c0.007,0,0.013,0,0.019,0c0.032-0.546-0.685-2.383-2.957-4.654    c-1.917-1.917-3.822-2.951-4.641-2.951C21.761,66.764,21.755,66.764,21.75,66.764z"/></g><g><path d="M32.465,73.251c-1.858,0-4.346-1.826-6.056-3.536c-2.612-2.612-4.547-5.949-2.981-7.515    c0.253-0.253,0.711-0.555,1.458-0.555c1.857,0,4.346,1.827,6.055,3.536c1.289,1.289,2.335,2.687,2.946,3.936    c0.981,2.008,0.561,3.055,0.036,3.579C33.671,72.949,33.212,73.251,32.465,73.251z M24.868,63.646    c-0.032,0.546,0.684,2.383,2.956,4.655c1.917,1.916,3.822,2.95,4.642,2.95c0.007,0,0.013,0,0.019,0    c0.032-0.546-0.685-2.384-2.957-4.655C27.597,64.665,25.63,63.635,24.868,63.646z"/></g><g><path d="M35.583,70.133c-1.856,0-4.346-1.827-6.056-3.537c-2.612-2.612-4.547-5.948-2.981-7.514    c0.253-0.253,0.711-0.555,1.459-0.555c1.858,0,4.346,1.826,6.056,3.536c2.612,2.612,4.547,5.949,2.981,7.515    C36.789,69.831,36.331,70.133,35.583,70.133z M27.986,60.527c-0.032,0.546,0.684,2.383,2.956,4.654    c1.917,1.917,3.823,2.951,4.642,2.951c0.007,0,0.013,0,0.019,0c0.032-0.546-0.684-2.383-2.956-4.655    c-1.917-1.916-3.822-2.95-4.642-2.95C27.998,60.527,27.992,60.527,27.986,60.527z"/></g><g><path d="M18.812,54.072c-2.18,0-3.953-1.773-3.953-3.954c0-2.179,1.773-3.952,3.953-3.952s3.953,1.773,3.953,3.952    C22.765,52.299,20.991,54.072,18.812,54.072z M18.812,48.166c-1.077,0-1.953,0.876-1.953,1.952c0,1.077,0.876,1.954,1.953,1.954    s1.953-0.877,1.953-1.954C20.765,49.042,19.889,48.166,18.812,48.166z"/></g><g><path d="M31.794,54.662c-2.18,0-3.953-1.773-3.953-3.953s1.773-3.953,3.953-3.953s3.953,1.773,3.953,3.953    S33.974,54.662,31.794,54.662z M31.794,48.756c-1.077,0-1.953,0.876-1.953,1.953s0.876,1.953,1.953,1.953s1.953-0.876,1.953-1.953    S32.871,48.756,31.794,48.756z"/></g><g><path d="M36.597,36.01c-2.969,0-5.385-2.416-5.385-5.385c0-2.968,2.415-5.382,5.384-5.382c2.97,0,5.387,2.415,5.387,5.383    C41.982,33.594,39.566,36.01,36.597,36.01z M36.597,27.243c-0.905,0-1.755,0.352-2.394,0.99c-0.639,0.639-0.991,1.488-0.991,2.392    c0,1.866,1.519,3.385,3.385,3.385c1.867,0,3.386-1.518,3.386-3.384C39.982,28.76,38.463,27.243,36.597,27.243z"/></g><g><path d="M23.873,41.943c-0.552,0-1-0.448-1-1s0.448-1,1-1c0.849,0,1.54-0.691,1.54-1.541c0-0.552,0.448-1,1-1s1,0.448,1,1    C27.413,40.355,25.825,41.943,23.873,41.943z"/></g><g><path d="M15.858,61.197c-1.291,0-2.341-1.05-2.341-2.34c0-0.553,0.448-1,1-1s1,0.447,1,1c0,0.188,0.153,0.34,0.341,0.34    c0.552,0,1,0.447,1,1S16.411,61.197,15.858,61.197z"/></g><g><path d="M50.867,31.075c-0.552,0-1-0.448-1-1c0-2.054-1.671-3.725-3.726-3.725c-0.552,0-1-0.448-1-1s0.448-1,1-1    c3.157,0,5.726,2.568,5.726,5.725C51.867,30.627,51.42,31.075,50.867,31.075z"/></g></g></svg>