<svg xmlns="http://www.w3.org/2000/svg" xmlns:xlink="http://www.w3.org/1999/xlink" version="1.1" x="0px" y="0px" viewBox="0 0 48 60" enable-background="new 0 0 48 48" xml:space="preserve"><g><g><path d="M10.605,47.999c-0.312,0-0.618-0.145-0.813-0.418c-0.154-0.216-3.761-5.369-1.832-11.558    c1.689-5.418,7.022-9.779,15.85-12.964c8.49-3.063,13.379-6.977,14.532-11.635c1.298-5.241-2.702-9.706-2.743-9.75    c-0.372-0.408-0.343-1.041,0.065-1.413c0.407-0.371,1.041-0.343,1.413,0.065c0.194,0.214,4.758,5.311,3.206,11.579    c-1.323,5.347-6.638,9.732-15.795,13.035c-8.194,2.956-13.11,6.877-14.611,11.655c-1.644,5.229,1.512,9.779,1.544,9.825    c0.318,0.45,0.213,1.074-0.236,1.394C11.009,47.939,10.806,47.999,10.605,47.999z"/><path d="M37.394,48c-0.201,0-0.404-0.061-0.58-0.187c-0.449-0.32-0.554-0.945-0.232-1.395c0.03-0.044,3.187-4.594,1.543-9.823    c-1.502-4.778-6.418-8.699-14.612-11.655c-9.156-3.303-14.47-7.688-15.794-13.035C6.166,5.637,10.729,0.54,10.924,0.326    c0.371-0.409,1.003-0.436,1.411-0.066c0.408,0.371,0.438,1.003,0.068,1.412c-0.041,0.045-4.044,4.546-2.74,9.769    c1.161,4.651,6.048,8.56,14.527,11.618c8.828,3.185,14.161,7.546,15.851,12.964c1.929,6.188-1.678,11.342-1.833,11.558    C38.013,47.854,37.706,48,37.394,48z"/></g><g><path d="M33.193,4.624H14.806c-0.552,0-1-0.448-1-1s0.448-1,1-1h18.387c0.553,0,1,0.448,1,1S33.746,4.624,33.193,4.624z"/><path d="M35.927,11.085H12.073c-0.552,0-1-0.448-1-1s0.448-1,1-1h23.854c0.553,0,1,0.448,1,1S36.479,11.085,35.927,11.085z"/><path d="M29.715,17.545h-11.43c-0.552,0-1-0.448-1-1s0.448-1,1-1h11.43c0.553,0,1,0.448,1,1S30.268,17.545,29.715,17.545z"/><path d="M33.193,45.376H14.806c-0.552,0-1-0.447-1-1s0.448-1,1-1h18.387c0.553,0,1,0.447,1,1S33.746,45.376,33.193,45.376z"/><path d="M35.927,38.915H12.073c-0.552,0-1-0.447-1-1s0.448-1,1-1h23.854c0.553,0,1,0.447,1,1S36.479,38.915,35.927,38.915z"/><path d="M29.715,32.455h-11.43c-0.552,0-1-0.447-1-1s0.448-1,1-1h11.43c0.553,0,1,0.447,1,1S30.268,32.455,29.715,32.455z"/></g></g></svg>