<svg xmlns="http://www.w3.org/2000/svg" xmlns:xlink="http://www.w3.org/1999/xlink" version="1.1" x="0px" y="0px" viewBox="0 0 100 125" enable-background="new 0 0 100 100" xml:space="preserve"><g><path d="M94.256,70.336c-7.219-7.218-17.831-6.852-28.38-5.959c0.024-0.284,0.05-0.569,0.075-0.854   c0.897-10.155,1.745-19.747-3.991-25.484c-6.279-6.278-17.893-6.657-28.948-6.425c0.022-0.878,0.046-1.751,0.071-2.616   c0.292-10.352,0.544-19.291-3.419-23.254c-0.267-0.267-0.699-0.267-0.966,0c-0.266,0.266-0.266,0.698,0,0.965   c3.548,3.547,3.292,12.632,3.021,22.25c-0.025,0.889-0.05,1.785-0.073,2.688c-0.902,0.022-1.799,0.047-2.688,0.071   c-9.618,0.273-18.702,0.528-22.249-3.019c-0.267-0.266-0.698-0.266-0.965,0c-0.267,0.267-0.267,0.699,0,0.966   c3.964,3.962,12.9,3.708,23.252,3.418c0.865-0.024,1.739-0.049,2.619-0.07c-0.234,11.055,0.146,22.669,6.425,28.948   c5.737,5.736,15.329,4.889,25.483,3.991c0.285-0.025,0.569-0.05,0.854-0.075c-0.892,10.55-1.26,21.161,5.958,28.38   c0.134,0.133,0.308,0.199,0.482,0.199s0.35-0.066,0.483-0.199c0.266-0.267,0.266-0.699,0-0.965   c-6.839-6.84-6.423-17.221-5.545-27.535c10.315-0.878,20.696-1.293,27.534,5.545c0.134,0.133,0.309,0.199,0.483,0.199   s0.349-0.066,0.482-0.199C94.522,71.034,94.522,70.602,94.256,70.336z M63.402,64.593c-9.829,0.866-19.112,1.689-24.397-3.598   C33.1,55.09,32.75,43.775,32.98,32.98c10.796-0.23,22.11,0.12,28.014,6.024c5.286,5.287,4.466,14.57,3.598,24.397   c-0.032,0.364-0.064,0.729-0.097,1.094C64.131,64.527,63.766,64.561,63.402,64.593z"/><path d="M62.03,59.666l-2.365,2.365c-0.267,0.267-0.267,0.699,0,0.965c0.134,0.133,0.308,0.201,0.483,0.201   c0.175,0,0.349-0.068,0.482-0.201l2.365-2.364c0.267-0.268,0.267-0.7,0-0.966C62.729,59.4,62.298,59.4,62.03,59.666z"/><path d="M62.315,51.721c-0.268-0.266-0.699-0.266-0.966,0l-9.629,9.629c-0.267,0.267-0.267,0.699,0,0.966   c0.133,0.133,0.308,0.199,0.482,0.199s0.349-0.066,0.482-0.199l9.63-9.629C62.581,52.42,62.581,51.987,62.315,51.721z"/><path d="M61.066,44.343c-0.268-0.266-0.699-0.266-0.966,0L44.343,60.101c-0.267,0.268-0.267,0.7,0,0.966   c0.133,0.133,0.308,0.201,0.483,0.201c0.175,0,0.349-0.068,0.482-0.201l15.758-15.758C61.332,45.043,61.332,44.61,61.066,44.343z"/><path d="M58.568,38.215c-0.268-0.266-0.699-0.266-0.966,0l-19.388,19.39c-0.266,0.266-0.266,0.698,0,0.965   c0.134,0.134,0.308,0.2,0.483,0.2s0.349-0.066,0.483-0.2l19.388-19.389C58.835,38.914,58.835,38.481,58.568,38.215z"/><path d="M52.439,35.718c-0.267-0.266-0.698-0.266-0.965,0L35.718,51.475c-0.267,0.268-0.267,0.7,0,0.966   c0.134,0.133,0.308,0.2,0.483,0.2s0.349-0.067,0.483-0.2l15.755-15.757C52.706,36.417,52.706,35.984,52.439,35.718z"/><path d="M45.147,34.384c-0.267-0.266-0.698-0.266-0.965,0l-9.798,9.799c-0.267,0.266-0.267,0.698,0,0.966   c0.133,0.133,0.308,0.199,0.482,0.199c0.175,0,0.35-0.066,0.483-0.199l9.798-9.799C45.414,35.084,45.414,34.651,45.147,34.384z"/><path d="M37.26,34.612c0.266-0.268,0.266-0.699,0-0.966c-0.267-0.267-0.699-0.267-0.966,0l-2.648,2.648   c-0.266,0.268-0.266,0.698,0,0.966c0.134,0.133,0.308,0.199,0.483,0.199s0.349-0.066,0.483-0.199L37.26,34.612z"/><path d="M89.851,70.463L70.462,89.852c-0.267,0.267-0.267,0.699,0,0.966c0.134,0.133,0.308,0.199,0.483,0.199   c0.175,0,0.349-0.066,0.482-0.199l19.389-19.39c0.267-0.266,0.267-0.698,0-0.965C90.549,70.197,90.118,70.197,89.851,70.463z"/><path d="M68.448,84.889c0.175,0,0.35-0.067,0.482-0.201l15.757-15.756c0.267-0.266,0.267-0.698,0-0.966   c-0.268-0.266-0.698-0.266-0.966,0L67.966,83.723c-0.267,0.267-0.267,0.699,0,0.965C68.099,84.821,68.273,84.889,68.448,84.889z"/><path d="M77.396,66.633c-0.268-0.266-0.698-0.266-0.966,0l-9.798,9.798c-0.267,0.266-0.267,0.698,0,0.965   c0.134,0.134,0.308,0.2,0.482,0.2s0.35-0.066,0.483-0.2l9.798-9.797C77.662,67.331,77.662,66.898,77.396,66.633z"/><path d="M12.324,28.763c0.175,0,0.35-0.066,0.483-0.199l15.756-15.757c0.267-0.267,0.267-0.699,0-0.966   c-0.267-0.266-0.698-0.266-0.965,0L11.841,27.598c-0.267,0.267-0.267,0.699,0,0.966C11.975,28.696,12.149,28.763,12.324,28.763z"/><path d="M19.134,29.896c0.133,0.133,0.308,0.2,0.482,0.2c0.175,0,0.35-0.067,0.483-0.2l9.798-9.797   c0.266-0.267,0.266-0.699,0-0.966c-0.267-0.266-0.699-0.266-0.966,0l-9.798,9.798C18.867,29.197,18.867,29.63,19.134,29.896z"/></g></svg>