<svg xmlns:dc="http://purl.org/dc/elements/1.1/" xmlns:cc="http://creativecommons.org/ns#" xmlns:rdf="http://www.w3.org/1999/02/22-rdf-syntax-ns#" xmlns:svg="http://www.w3.org/2000/svg" xmlns="http://www.w3.org/2000/svg" xmlns:sodipodi="http://sodipodi.sourceforge.net/DTD/sodipodi-0.dtd" xmlns:inkscape="http://www.inkscape.org/namespaces/inkscape" viewBox="0 0 80 80" version="1.1" x="0px" y="0px"><path style="text-indent:0;text-transform:none;direction:ltr;block-progression:tb;baseline-shift:baseline;color:#000000;enable-background:accumulate;" d="m 18.2,28.175 c -1.684528,0 -3.070929,0.322594 -4.1,0.9 -1.029072,0.577406 -1.719241,1.378864 -2.2,2.3 -0.961517,1.842271 -1.133765,4.239495 -1.325,6.65 -0.191235,2.410505 -0.367705,4.850223 -1.225,6.725 -0.4286476,0.937388 -1.048631,1.715958 -1.85,2.3 -0.801369,0.584042 -1.7706729,0.962671 -3.125,1.125 l 0.25,0.8 c 1.6569046,-0.198595 2.9797962,-0.717911 3.95,-1.425 0.970203,-0.707089 1.640303,-1.594715 2.1,-2.6 0.91939,-2.01057 1.083881,-4.490967 1.275,-6.9 0.191119,-2.409033 0.397052,-4.742849 1.275,-6.425 0.438974,-0.841075 1.010416,-1.506969 1.8,-1.95 0.789584,-0.443031 1.785518,-0.7 3.175,-0.7 1.378004,0 2.337586,0.248101 3.125,0.725 0.787414,0.476899 1.368177,1.200485 1.8,2.1 0.863644,1.79903 1.074518,4.3 1.25,6.8 0.175485,2.5 0.338416,4.99903 1.275,6.95 0.468294,0.975485 1.13151,1.833149 2.15,2.45 1.01849,0.616851 2.403995,0.975 4.1,0.975 1.696006,0 3.081509,-0.358149 4.1,-0.975 1.018489,-0.616851 1.681706,-1.474515 2.15,-2.45 0.936582,-1.95097 1.099515,-4.45 1.275,-6.95 0.175484,-2.5 0.386353,-5.00097 1.25,-6.8 0.431822,-0.899515 1.012585,-1.623101 1.8,-2.1 0.787414,-0.476899 1.746996,-0.725 3.125,-0.725 1.378006,0 2.337587,0.248101 3.125,0.725 0.787415,0.476899 1.368177,1.200485 1.8,2.1 0.863644,1.79903 1.074516,4.3 1.25,6.8 0.175482,2.5 0.338416,4.99903 1.275,6.95 0.468293,0.975485 1.131509,1.833149 2.15,2.45 1.01849,0.616851 2.403994,0.975 4.1,0.975 1.696004,0 3.081509,-0.358149 4.1,-0.975 1.01849,-0.616851 1.681707,-1.474515 2.15,-2.45 0.936584,-1.95097 1.099517,-4.45 1.275,-6.95 0.175485,-2.5 0.386355,-5.00097 1.25,-6.8 0.431823,-0.899515 1.012585,-1.623101 1.8,-2.1 0.673487,-0.4079 1.495457,-0.638941 2.575,-0.7 l 0,-0.8 c -1.445123,0.07021 -2.645719,0.402321 -3.55,0.95 -1.01849,0.616851 -1.681707,1.474515 -2.15,2.45 -0.936584,1.95097 -1.099516,4.45 -1.275,6.95 -0.175483,2.5 -0.386355,5.00097 -1.25,6.8 -0.431822,0.899515 -1.012588,1.623101 -1.8,2.1 -0.787415,0.476899 -1.746996,0.725 -3.125,0.725 -1.378004,0 -2.337586,-0.248101 -3.125,-0.725 -0.787413,-0.476899 -1.368177,-1.200485 -1.8,-2.1 -0.863645,-1.79903 -1.074517,-4.3 -1.25,-6.8 -0.175485,-2.5 -0.338418,-4.99903 -1.275,-6.95 -0.468295,-0.975485 -1.13151,-1.833149 -2.15,-2.45 -1.018488,-0.616851 -2.403994,-0.975 -4.1,-0.975 -1.696005,0 -3.081509,0.358149 -4.1,0.975 -1.01849,0.616851 -1.681705,1.474515 -2.15,2.45 -0.936583,1.95097 -1.099516,4.45 -1.275,6.95 -0.175483,2.5 -0.386354,5.00097 -1.25,6.8 -0.431822,0.899515 -1.012586,1.623101 -1.8,2.1 -0.787415,0.476899 -1.746995,0.725 -3.125,0.725 -1.378003,0 -2.337586,-0.248101 -3.125,-0.725 -0.787414,-0.476899 -1.368177,-1.200485 -1.8,-2.1 -0.863644,-1.79903 -1.074516,-4.3 -1.25,-6.8 -0.175483,-2.5 -0.338416,-4.99903 -1.275,-6.95 -0.468293,-0.975485 -1.131511,-1.833149 -2.15,-2.45 -1.01849,-0.616851 -2.403995,-0.975 -4.1,-0.975 z" fill="#000000" fill-opacity="1" stroke="none" marker="none" visibility="visible" display="inline" overflow="visible"></path></svg>