<svg xmlns="http://www.w3.org/2000/svg" xmlns:xlink="http://www.w3.org/1999/xlink" version="1.1" x="0px" y="0px" viewBox="0 0 100 125" enable-background="new 0 0 100 100" xml:space="preserve"><path fill="#000000" d="M59.391,12.496C58.412,8.21,54.578,5,50,5c-4.578,0-8.414,3.21-9.394,7.496  c-18.911,4.32-32.392,21.06-32.392,40.718C8.214,76.255,26.959,95,50,95s41.786-18.745,41.786-41.786  C91.786,33.556,78.303,16.816,59.391,12.496z M50,88.572c-19.496,0-35.357-15.862-35.357-35.357c0-16.4,11.085-30.4,26.729-34.293  c1.58,3.173,4.849,5.364,8.628,5.364c3.778,0,7.046-2.191,8.626-5.364c15.645,3.893,26.731,17.893,26.731,34.293  C85.357,72.71,69.496,88.572,50,88.572z"/><path fill="#000000" d="M50,43.572c-5.317,0-9.643,4.325-9.643,9.643c0,5.317,4.326,9.643,9.643,9.643s9.643-4.326,9.643-9.643  C59.643,47.897,55.317,43.572,50,43.572z M50,56.429c-1.772,0-3.214-1.442-3.214-3.214C46.786,51.442,48.228,50,50,50  s3.214,1.442,3.214,3.214C53.214,54.986,51.772,56.429,50,56.429z"/></svg>