<svg xmlns="http://www.w3.org/2000/svg" xmlns:xlink="http://www.w3.org/1999/xlink" version="1.1" x="0px" y="0px" viewBox="0 0 100 125" enable-background="new 0 0 100 100" xml:space="preserve"><path fill="#000000" d="M57.499,12.502c0,0,0-0.001,0-0.002C57.499,8.364,54.135,5,50,5s-7.5,3.364-7.5,7.5c0,0,0,0.001,0,0.002  C22.713,16.099,8.409,33.206,8.409,53.409C8.409,76.343,27.067,95,50,95s41.591-18.657,41.591-41.591  C91.591,33.206,77.288,16.1,57.499,12.502z M50,6.364c3.383,0,6.135,2.752,6.135,6.136S53.383,18.636,50,18.636  c-3.384,0-6.136-2.752-6.136-6.136S46.616,6.364,50,6.364z M50,93.636c-22.182,0-40.227-18.045-40.227-40.227  c0-19.502,13.779-36.02,32.857-39.544C43.275,17.35,46.332,20,50,20s6.724-2.649,7.368-6.135  c19.08,3.525,32.859,20.042,32.859,39.544C90.228,75.591,72.182,93.636,50,93.636z"/><path fill="#000000" d="M50,45.909c-4.135,0-7.5,3.364-7.5,7.5c0,4.135,3.365,7.5,7.5,7.5s7.5-3.365,7.5-7.5  C57.5,49.273,54.135,45.909,50,45.909z M50,59.545c-3.384,0-6.136-2.752-6.136-6.136s2.752-6.136,6.136-6.136  s6.137,2.752,6.137,6.136S53.384,59.545,50,59.545z"/></svg>