<svg xmlns:dc="http://purl.org/dc/elements/1.1/" xmlns:cc="http://creativecommons.org/ns#" xmlns:rdf="http://www.w3.org/1999/02/22-rdf-syntax-ns#" xmlns:svg="http://www.w3.org/2000/svg" xmlns="http://www.w3.org/2000/svg" xmlns:sodipodi="http://sodipodi.sourceforge.net/DTD/sodipodi-0.dtd" xmlns:inkscape="http://www.inkscape.org/namespaces/inkscape" version="1.1" x="0px" y="0px" viewBox="0 0 100 125"><title>Calculation Icon</title><g transform="translate(0,-952.36218)"><rect style="" width="10" height="40" x="20" y="957.36218" rx="5" ry="5" fill="#000000" fill-opacity="1" fill-rule="nonzero" stroke="none"/><rect style="" width="10" height="40" x="972.36218" y="5" transform="matrix(0,1,1,0,0,0)" rx="5" ry="5" fill="#000000" fill-opacity="1" fill-rule="nonzero" stroke="none"/><rect style="" width="10" height="40" x="972.36218" y="55" transform="matrix(0,1,1,0,0,0)" rx="5" ry="5" fill="#000000" fill-opacity="1" fill-rule="nonzero" stroke="none"/><rect style="" width="10" height="40" x="1022.3622" y="55" transform="matrix(0,1,1,0,0,0)" rx="5" ry="5" fill="#000000" fill-opacity="1" fill-rule="nonzero" stroke="none"/><path style="" d="m 80,60 a 5,5 0 1 1 -10,0 5,5 0 1 1 10,0 z" transform="translate(0,952.36218)" fill="#000000" fill-opacity="1" fill-rule="nonzero" stroke="none"/><path transform="translate(0,982.36218)" style="" d="m 80,60 a 5,5 0 1 1 -10,0 5,5 0 1 1 10,0 z" fill="#000000" fill-opacity="1" fill-rule="nonzero" stroke="none"/><g transform="translate(-24.969443,24.969427)"><rect transform="matrix(0.70710678,0.70710678,-0.70710678,0.70710678,0,0)" ry="5" rx="5" y="647.17175" x="739.13245" height="52.5" width="10" style="" fill="#000000" fill-opacity="1" fill-rule="nonzero" stroke="none"/></g><rect style="" width="10" height="52.5" x="703.73389" y="717.88245" transform="matrix(-0.70710678,0.70710678,0.70710678,0.70710678,0,0)" rx="5" ry="5" fill="#000000" fill-opacity="1" fill-rule="nonzero" stroke="none"/></g></svg>