<svg xmlns="http://www.w3.org/2000/svg" xmlns:xlink="http://www.w3.org/1999/xlink" version="1.1" x="0px" y="0px" viewBox="0 0 100 125" enable-background="new 0 0 100 100" xml:space="preserve"><path d="M79.3,67.3h-0.2C82.4,57.3,80.4,49.7,78,45c-1.1-2.1-2.4-4.1-4-5.8c0.4-1.1,0.6-2.2,0.6-3.4c0-3.9-2.2-7.4-5.4-9.1L76,15  c0.2-0.3,0.3-0.8,0.2-1.2c-0.1-0.4-0.4-0.7-0.7-0.9L62.2,5.2c-0.7-0.4-1.7-0.2-2.1,0.6l-23,39.5c-0.2,0.3-0.3,0.8-0.2,1.2  c0.1,0.4,0.4,0.7,0.7,0.9l2.5,1.5l-2.3,4L34.7,51c-0.3-0.2-0.8-0.3-1.2-0.2c-0.4,0.1-0.7,0.4-0.9,0.7l-2.3,4  c-0.4,0.7-0.2,1.7,0.6,2.1l14.5,8.5c0.2,0.1,0.5,0.2,0.8,0.2c0.5,0,1-0.3,1.3-0.8l2.3-4c0.2-0.3,0.3-0.8,0.2-1.2  c-0.1-0.4-0.4-0.7-0.7-0.9l-3.2-1.9l2.3-4l2.5,1.5c0.2,0.1,0.5,0.2,0.8,0.2c0.5,0,1-0.3,1.3-0.8l5.6-9.7c1.6,1,3.4,1.5,5.4,1.5  c0.5,0,1.1,0,1.6-0.1c0.8,0.9,1.9,2.1,2.7,3.8c2.5,4.9,2.2,10.7-0.9,17.4h-9.3c-0.7,0-1.4,0.5-1.5,1.3l-0.5,3.2H28.2  c-0.8,0-1.5,0.7-1.5,1.5c0,0.8,0.7,1.5,1.5,1.5h27.4l-1.5,9.3H24.6c-0.6,0-1.1,0.3-1.4,0.8l-3.9,7.8c-0.2,0.5-0.2,1,0.1,1.5  c0.3,0.4,0.8,0.7,1.3,0.7h58.7c0.8,0,1.5-0.7,1.5-1.5V68.8C80.9,68,80.2,67.3,79.3,67.3z M45.6,62.7l-11.9-6.9l0.8-1.4l11.9,6.9  L45.6,62.7z M43.8,55.3l-2.9-1.7l1.9-3.3l2.9,1.7L43.8,55.3z M51.1,51.7l-2.5-1.5c0,0,0,0,0,0L43.1,47c0,0,0,0,0,0l-2.5-1.5L62,8.6  l10.6,6.2l-6.3,10.8c0,0,0,0,0,0c-0.1,0-0.3-0.1-0.4-0.1c0,0-0.1,0-0.1,0c-0.1,0-0.3,0-0.4-0.1c0,0-0.1,0-0.1,0c-0.1,0-0.3,0-0.4,0  c0,0-0.1,0-0.1,0c-0.2,0-0.4,0-0.5,0c-5.8,0-10.5,4.7-10.5,10.5c0,0.3,0,0.6,0,0.9c0,0,0,0.1,0,0.1c0,0.3,0.1,0.6,0.1,0.9  c0,0,0,0,0,0.1c0.1,0.3,0.1,0.6,0.2,0.9c0,0,0,0,0,0.1c0.1,0.3,0.2,0.6,0.3,0.9c0,0,0,0,0,0c0.1,0.3,0.2,0.6,0.4,0.8c0,0,0,0,0,0  c0.1,0.3,0.3,0.5,0.4,0.8c0,0,0,0,0,0c0.1,0.2,0.3,0.5,0.5,0.7c0,0,0,0.1,0.1,0.1c0.2,0.2,0.3,0.4,0.5,0.6c0,0,0,0.1,0.1,0.1  L51.1,51.7z M56.7,35.9c0-4.1,3.3-7.4,7.4-7.4c0.2,0,0.5,0,0.7,0c0.1,0,0.2,0,0.2,0c0.1,0,0.3,0,0.4,0.1c0.1,0,0.2,0,0.3,0.1  c0.1,0,0.3,0.1,0.4,0.1c0.1,0,0.2,0.1,0.3,0.1c3,1,5.1,3.8,5.1,7.1c0,1.2-0.3,2.3-0.8,3.2c-0.1,0.2-0.2,0.3-0.2,0.5  c0,0.1-0.1,0.2-0.1,0.2c-0.1,0.2-0.2,0.3-0.3,0.4c-0.1,0.1-0.1,0.1-0.2,0.2c-0.1,0.2-0.3,0.3-0.4,0.5c0,0-0.1,0.1-0.1,0.1  c-0.4,0.4-0.8,0.7-1.2,1c0,0-0.1,0-0.1,0.1c-0.2,0.1-0.4,0.2-0.6,0.3c-0.1,0-0.1,0.1-0.2,0.1c-0.2,0.1-0.3,0.2-0.5,0.2  c-0.1,0-0.2,0.1-0.3,0.1C66.3,42.9,66.1,43,66,43c-0.6,0.2-1.2,0.3-1.9,0.3C60.8,43.3,56.7,40.2,56.7,35.9z M77.8,92H23.1l2.4-4.8  h30c0.7,0,1.4-0.5,1.5-1.3l2.5-15.5h8.9c0.6,0,1.1-0.3,1.4-0.8c3.9-7.9,4.4-15,1.3-20.9c-0.7-1.3-1.5-2.5-2.2-3.4c0,0,0,0,0,0  c1.1-0.6,2-1.3,2.9-2.2c0,0,0,0,0,0c0.3-0.3,0.5-0.6,0.8-0.9c1.1,1.3,2.1,2.8,2.8,4.3c2.3,4.4,4.2,11.8,0.2,21.9  c-0.2,0.5-0.1,1,0.2,1.4c0.3,0.4,0.8,0.7,1.3,0.7h0.9V92z"/><text x="0" y="115" fill="#000000" font-size="5px" font-weight="bold" font-family="'Helvetica Neue', Helvetica, Arial-Unicode, Arial, Sans-serif">Created by Egorova Valentina</text><text x="0" y="120" fill="#000000" font-size="5px" font-weight="bold" font-family="'Helvetica Neue', Helvetica, Arial-Unicode, Arial, Sans-serif">from the Noun Project</text></svg>