<svg xmlns="http://www.w3.org/2000/svg" xmlns:xlink="http://www.w3.org/1999/xlink" version="1.1" x="0px" y="0px" viewBox="0 0 100 125" style="enable-background:new 0 0 100 100;" xml:space="preserve"><path d="M67.9,68H74c0.6,0,1-0.4,1-1s-0.4-1-1-1H54c-0.6,0-1,0.4-1,1s0.4,1,1,1h4.6c-2.4,1.9-5.5,3-8.6,3  c-7.7,0-14-6.3-14-14c0-6.3,4.1-11.7,10.1-13.5l5.8,10c0.2,0.3,0.5,0.5,0.9,0.5c0.2,0,0.3,0,0.5-0.1l0.5-0.3l3.5,5.9  c0.2,0.3,0.5,0.5,0.9,0.5c0.2,0,0.3,0,0.5-0.1l8.3-4.7c0.2-0.1,0.4-0.4,0.5-0.6s0-0.5-0.1-0.8l-3.5-5.9l0.5-0.3  c0.2-0.1,0.4-0.4,0.5-0.6s0-0.5-0.1-0.8L52,24.5c-0.3-0.5-0.9-0.6-1.4-0.4l-0.5,0.3l-3.5-5.9c-0.3-0.5-0.9-0.6-1.4-0.4L37,22.8  c-0.2,0.1-0.4,0.4-0.5,0.6s0,0.5,0.1,0.8l3.5,5.9l-0.5,0.3c-0.2,0.1-0.4,0.4-0.5,0.6s0,0.5,0.1,0.8l3.3,5.6C34.4,40.5,29,48.2,29,57  c0,8.4,5,15.6,12.1,19H36c-2.8,0-5,2.2-5,5c0,0.6,0.4,1,1,1h36c0.6,0,1-0.4,1-1c0-2.8-2.2-5-5-5h-5.1C62.6,74.3,65.7,71.5,67.9,68z   M65.1,53.9l-6.5,3.7l-3-5.1l6.5-3.7L65.1,53.9z M38.9,24.1l6.5-3.7l3,5.1l-6.5,3.7L38.9,24.1z M42,31.4L42,31.4l8.3-4.7  c0,0,0,0,0,0l0.5-0.3l11.7,20L62,46.6c0,0,0,0,0,0l-8.3,4.7c0,0,0,0,0,0l-0.5,0.3l-11.7-20L42,31.4z M64,78c1.3,0,2.4,0.8,2.8,2  H33.2c0.4-1.2,1.5-2,2.8-2H64z M50,76c-10.5,0-19-8.5-19-19c0-8.1,5-15.2,12.6-17.9l1.5,2.6C38.5,43.9,34,50,34,57  c0,8.8,7.2,16,16,16c4.4,0,8.6-1.8,11.6-5h3.9C61.9,73,56.2,76,50,76z"/><text x="0" y="115" fill="#000000" font-size="5px" font-weight="bold" font-family="'Helvetica Neue', Helvetica, Arial-Unicode, Arial, Sans-serif">Created by Spicy Icons</text><text x="0" y="120" fill="#000000" font-size="5px" font-weight="bold" font-family="'Helvetica Neue', Helvetica, Arial-Unicode, Arial, Sans-serif">from the Noun Project</text></svg>