<svg xmlns="http://www.w3.org/2000/svg" xmlns:xlink="http://www.w3.org/1999/xlink" version="1.1" x="0px" y="0px" viewBox="0 0 48 60" enable-background="new 0 0 48 48" xml:space="preserve"><g><path fill="#000000" d="M17.8,0.5H3.9C2,0.5,0.5,2,0.5,3.9v13.9c0,1.9,1.5,3.4,3.4,3.4h13.9c1.9,0,3.4-1.5,3.4-3.4V3.9   C21.2,2,19.7,0.5,17.8,0.5z M16.9,12.3h-4.1c-0.2,0-0.4,0.2-0.4,0.4v4.1c0,0.8-0.7,1.5-1.5,1.5s-1.5-0.7-1.5-1.5v-4.1   c0-0.2-0.2-0.4-0.4-0.4H4.8c-0.8,0-1.5-0.7-1.5-1.5S4,9.3,4.8,9.3h4.1c0.2,0,0.4-0.2,0.4-0.4V4.8c0-0.8,0.7-1.5,1.5-1.5   s1.5,0.7,1.5,1.5v4.1c0,0.2,0.2,0.4,0.4,0.4h4.1c0.8,0,1.5,0.7,1.5,1.5S17.7,12.3,16.9,12.3z"/><path fill="#000000" d="M17.8,26.8H3.9c-1.9,0-3.4,1.5-3.4,3.4v13.9c0,1.9,1.5,3.4,3.4,3.4h13.9c1.9,0,3.4-1.5,3.4-3.4V30.2   C21.2,28.3,19.7,26.8,17.8,26.8z M13.2,37.4l2.9,2.9c0.6,0.6,0.6,1.5,0,2.1c-0.6,0.6-1.5,0.6-2.1,0l-2.9-2.9   c-0.2-0.2-0.4-0.2-0.6,0l-2.9,2.9c-0.6,0.6-1.5,0.6-2.1,0c-0.6-0.6-0.6-1.5,0-2.1l2.9-2.9c0.2-0.2,0.2-0.4,0-0.6l-2.9-2.9   c-0.6-0.6-0.6-1.5,0-2.1c0.6-0.6,1.5-0.6,2.1,0l2.9,2.9c0.2,0.2,0.4,0.2,0.6,0l2.9-2.9c0.6-0.6,1.5-0.6,2.1,0   c0.6,0.6,0.6,1.5,0,2.1l-2.9,2.9C13.1,37,13.1,37.3,13.2,37.4z"/><path fill="#000000" d="M44.1,0.5H30.2c-1.9,0-3.4,1.5-3.4,3.4v13.9c0,1.9,1.5,3.4,3.4,3.4h13.9c1.9,0,3.4-1.5,3.4-3.4V3.9   C47.5,2,46,0.5,44.1,0.5z M43.2,12.3H31.1c-0.8,0-1.5-0.7-1.5-1.5s0.7-1.5,1.5-1.5h12.1c0.8,0,1.5,0.7,1.5,1.5S44,12.3,43.2,12.3z"/><path fill="#000000" d="M44.1,26.8H30.2c-1.9,0-3.4,1.5-3.4,3.4v13.9c0,1.9,1.5,3.4,3.4,3.4h13.9c1.9,0,3.4-1.5,3.4-3.4V30.2   C47.5,28.3,46,26.8,44.1,26.8z M43.2,42.7H31.1c-0.8,0-1.5-0.7-1.5-1.5s0.7-1.5,1.5-1.5h12.1c0.8,0,1.5,0.7,1.5,1.5   S44,42.7,43.2,42.7z M43.2,34.6H31.1c-0.8,0-1.5-0.7-1.5-1.5s0.7-1.5,1.5-1.5h12.1c0.8,0,1.5,0.7,1.5,1.5S44,34.6,43.2,34.6z"/></g></svg>