<svg xmlns="http://www.w3.org/2000/svg" xmlns:xlink="http://www.w3.org/1999/xlink" version="1.1" viewBox="0 0 96 120" x="0px" y="0px"><path d="M76.072 72.796c-0.72 0-1.416-0.392-1.768-1.072l-24.076-45.468c-0.516-0.972-0.14-2.192 0.836-2.712 0.976-0.512 2.18-0.132 2.704 0.832l24.072 45.472c0.516 0.976 0.144 2.188-0.832 2.708-0.308 0.168-0.624 0.24-0.936 0.24z" fill="#000000"/><path d="M19.268 72.796c-0.284 0-0.576-0.072-0.848-0.196-1-0.464-1.428-1.656-0.96-2.656l21.404-45.472c0.472-0.996 1.664-1.424 2.664-0.956s1.428 1.66 0.96 2.66l-21.404 45.472c-0.344 0.724-1.064 1.148-1.816 1.148z" fill="#000000"/><path d="M69.812 84h-43.148c-1.104 0-2-0.9-2-2s0.896-2 2-2h43.148c1.1 0 2 0.9 2 2s-0.896 2-2 2z" fill="#000000"/><path d="M14 72c5.524 0 10 4.476 10 10s-4.476 10-10 10-10-4.476-10-10 4.476-10 10-10zM14 68c-7.72 0-14 6.28-14 14s6.28 14 14 14 14-6.28 14-14-6.28-14-14-14v0z" fill="#000000"/><path d="M82 72c5.524 0 10 4.476 10 10s-4.476 10-10 10-10-4.476-10-10 4.476-10 10-10zM82 68c-7.72 0-14 6.28-14 14s6.28 14 14 14 14-6.28 14-14-6.28-14-14-14v0z" fill="#000000"/><path d="M46 4c5.524 0 10 4.476 10 10s-4.476 10-10 10-10-4.476-10-10 4.476-10 10-10zM46 0c-7.72 0-14 6.28-14 14s6.28 14 14 14c7.72 0 14-6.28 14-14s-6.28-14-14-14v0z" fill="#000000"/></svg>