<svg xmlns="http://www.w3.org/2000/svg" xmlns:xlink="http://www.w3.org/1999/xlink" version="1.1" x="0px" y="0px" viewBox="0 0 100 125" enable-background="new 0 0 100 100" xml:space="preserve"><g><path fill="#000000" d="M70.932,26.352C52.795,5.638,30.676,0.632,21.525,15.172c-9.152,14.542-1.871,43.119,16.263,63.834   c18.134,20.714,40.255,25.722,49.408,11.18C96.346,75.644,89.066,47.065,70.932,26.352z M86.742,89.669   c-9.012,14.316-30.869,9.371-48.726-11.025c-17.855-20.396-25.05-48.638-16.039-62.955c9.012-14.316,30.869-9.372,48.724,11.025   C88.559,47.111,95.754,75.353,86.742,89.669z"/><path fill="#000000" d="M64.303,36.883c-7.818-8.931-16.65-13.048-23.164-11.392c0.126,0.087,0.28,0.146,0.29,0.296   c6.426-1.614,15.048,2.528,22.736,11.313c10.715,12.236,15.031,29.181,9.627,37.771c-5.408,8.592-18.523,5.622-29.237-6.616   c-9.578-10.938-14.213-25.072-11.188-34.205c-0.144-0.008-0.188-0.281-0.263-0.367c-3,9.271,1.627,23.725,11.314,34.789   c10.88,12.432,24.151,15.434,29.646,6.708C79.553,66.458,75.184,49.311,64.303,36.883z"/><path fill="#000000" d="M67.617,31.617c-14.51-16.57-32.203-20.576-39.525-8.943c-7.323,11.631-1.497,34.495,13.01,51.066   c14.509,16.572,32.204,20.576,39.526,8.943C87.949,71.051,82.125,48.188,67.617,31.617z M80.266,82.27   c-7.207,11.454-24.695,7.499-38.98-8.819C27,57.133,21.245,34.541,28.455,23.087c7.209-11.454,24.694-7.497,38.979,8.82   C81.721,48.225,87.477,70.815,80.266,82.27z"/></g><g><polygon points="39.852,26.225 39.864,26.314 39.729,26.343 39.711,26.534 39.873,26.534 40.087,26.514 40.198,26.382    40.08,26.336 40.016,26.262 39.919,26.104 39.873,25.883 39.691,25.92 39.64,25.998 39.64,26.087 39.727,26.146  "/><polygon points="39.697,26.299 39.707,26.179 39.6,26.133 39.451,26.167 39.34,26.345 39.34,26.46 39.469,26.46  "/><path d="M36.624,26.808l-0.033,0.085h-0.159v0.082h0.038c0,0,0.002,0.018,0.005,0.04l0.098-0.008l0.061-0.038l0.016-0.076   l0.079-0.007l0.031-0.064l-0.072-0.015L36.624,26.808z"/><polygon points="36.214,26.957 36.208,27.037 36.323,27.027 36.334,26.947 36.265,26.893  "/><path d="M43.134,29.521c-0.002-0.177-0.011-0.353-0.028-0.525c-0.056-0.577-0.193-1.13-0.4-1.647   c-0.016-0.039-0.03-0.078-0.046-0.116c-0.275-0.65-0.662-1.242-1.135-1.753c-0.031-0.033-0.063-0.066-0.094-0.099   c-0.089-0.093-0.181-0.184-0.276-0.271c-1.076-0.979-2.504-1.577-4.07-1.577c-1.579,0-3.018,0.608-4.097,1.603   c-0.251,0.232-0.482,0.485-0.692,0.756c-0.791,1.022-1.262,2.303-1.262,3.692c0,3.337,2.714,6.051,6.051,6.051   c2.347,0,4.384-1.344,5.387-3.302c0.215-0.419,0.382-0.865,0.494-1.333c0.029-0.118,0.053-0.237,0.075-0.358   c0.061-0.344,0.094-0.697,0.094-1.058C43.136,29.563,43.134,29.542,43.134,29.521z M41.995,27.104l0.035-0.04   c0.046,0.09,0.089,0.181,0.13,0.272l-0.058-0.002l-0.108,0.015V27.104z M41.121,26.048l0.001-0.271   c0.095,0.101,0.187,0.204,0.274,0.312l-0.109,0.163l-0.381-0.004l-0.024-0.079L41.121,26.048z M33.822,25.376v-0.011h0.121   l0.01-0.041h0.198v0.086l-0.057,0.076h-0.273L33.822,25.376z M34.147,25.746l-0.273,0.018l-0.052-0.062l0.193-0.056   c0,0,0.121-0.021,0.132-0.021C34.158,25.625,34.147,25.746,34.147,25.746z M42.381,28.048h-0.443l-0.27-0.201l-0.284,0.028v0.173   h-0.09l-0.097-0.069l-0.492-0.125v-0.318l-0.623,0.049l-0.193,0.104h-0.247l-0.122-0.012l-0.3,0.166v0.314l-0.614,0.442   l0.051,0.189h0.125l-0.033,0.18L38.662,29l-0.005,0.472l0.531,0.604h0.231l0.014-0.037h0.415l0.12-0.11h0.235l0.129,0.13   l0.351,0.036l-0.046,0.467l0.389,0.688l-0.205,0.392l0.014,0.185l0.162,0.161v0.444l0.212,0.285v0.369h0.183   c-1.02,1.251-2.571,2.053-4.307,2.053c-3.062,0-5.553-2.491-5.553-5.553c0-0.771,0.159-1.505,0.443-2.173v-0.174l0.199-0.241   c0.069-0.13,0.143-0.257,0.222-0.381l0.009,0.102l-0.23,0.279l-0.198,0.241v0.174v0.315l0.23,0.111v0.439l0.221,0.377l0.18,0.028   l0.023-0.13l-0.212-0.327l-0.042-0.318h0.125l0.053,0.327l0.307,0.448l-0.079,0.145l0.195,0.298l0.484,0.12v-0.078l0.194,0.027   l-0.019,0.139l0.152,0.027l0.235,0.064l0.332,0.379l0.424,0.032l0.042,0.346l-0.291,0.203l-0.014,0.309l-0.042,0.189l0.42,0.526   l0.032,0.18c0,0,0.152,0.042,0.171,0.042c0.019,0,0.341,0.244,0.341,0.244v0.95l0.115,0.032l-0.078,0.438l0.193,0.259l-0.036,0.435   l0.256,0.45l0.329,0.287l0.331,0.006l0.032-0.105l-0.243-0.205l0.014-0.102l0.043-0.124l0.009-0.127l-0.164-0.005L36.16,33.96   l0.136-0.131l0.019-0.1l-0.152-0.043l0.009-0.093l0.217-0.032l0.33-0.158L36.83,33.2l0.346-0.443l-0.079-0.347l0.106-0.185   l0.318,0.01l0.214-0.169l0.069-0.669l0.237-0.302l0.042-0.194l-0.217-0.069l-0.144-0.234l-0.489-0.005l-0.388-0.147l-0.019-0.277   L36.7,29.942l-0.351-0.006l-0.203-0.317l-0.18-0.088l-0.009,0.097l-0.328,0.02l-0.12-0.167l-0.341-0.069l-0.282,0.325l-0.443-0.075   l-0.032-0.499l-0.323-0.056l0.129-0.245l-0.037-0.14l-0.425,0.283l-0.267-0.032l-0.095-0.209l0.058-0.216l0.147-0.271l0.339-0.172   l0.655-0.001l-0.001,0.2l0.235,0.109l-0.019-0.341l0.17-0.171l0.342-0.226l0.023-0.158l0.342-0.355l0.363-0.201l-0.032-0.026   l0.246-0.231l0.09,0.024l0.041,0.052l0.093-0.104l0.023-0.011l-0.102-0.014l-0.104-0.035v-0.1l0.055-0.045h0.121l0.056,0.024   l0.048,0.097l0.059-0.009v-0.008l0.017,0.005l0.17-0.025l0.024-0.083l0.097,0.024v0.09l-0.09,0.062h0l0.013,0.099l0.308,0.096   c0,0,0,0.001,0.001,0.004l0.071-0.006l0.005-0.134l-0.244-0.111L37,26.532l0.203-0.069l0.009-0.194L37,26.14l-0.014-0.327   l-0.291,0.143h-0.106l0.028-0.249l-0.396-0.093l-0.164,0.123v0.378l-0.294,0.093l-0.118,0.246l-0.128,0.021v-0.314l-0.277-0.038   l-0.138-0.09l-0.056-0.204l0.495-0.29l0.242-0.073l0.025,0.162l0.134-0.007l0.011-0.082l0.141-0.02l0.002-0.029l-0.061-0.024   l-0.014-0.087l0.174-0.015l0.104-0.109l0.006-0.008l0.001,0.001l0.032-0.033l0.364-0.046l0.162,0.137l-0.423,0.226l0.538,0.127   l0.069-0.18h0.235l0.083-0.157l-0.166-0.042v-0.198l-0.521-0.23l-0.36,0.041l-0.203,0.106l0.014,0.259l-0.212-0.032l-0.033-0.144   l0.203-0.185l-0.369-0.019l-0.106,0.032l-0.046,0.125l0.139,0.023l-0.028,0.138l-0.235,0.015l-0.037,0.092l-0.341,0.01   c0,0-0.009-0.194-0.023-0.194s0.267-0.005,0.267-0.005l0.204-0.198l-0.111-0.056l-0.147,0.144l-0.245-0.014l-0.148-0.203H34.55   l-0.328,0.244h0.3l0.027,0.088l-0.078,0.072l0.333,0.01l0.051,0.12l-0.374-0.015l-0.019-0.092l-0.235-0.051l-0.125-0.069   l-0.28,0.002c0.917-0.668,2.044-1.062,3.262-1.062c1.404,0,2.687,0.524,3.666,1.387l-0.066,0.118l-0.256,0.101l-0.108,0.117   l0.025,0.137l0.132,0.019l0.08,0.199l0.228-0.093l0.037,0.267h-0.068l-0.187-0.027l-0.208,0.035l-0.201,0.283l-0.287,0.045   l-0.042,0.246l0.122,0.028l-0.035,0.158l-0.285-0.058l-0.262,0.058l-0.056,0.146l0.045,0.306l0.153,0.072l0.258-0.002l0.174-0.016   l0.053-0.139l0.271-0.353l0.179,0.036l0.176-0.159l0.033,0.125l0.434,0.292l-0.053,0.071l-0.195-0.011l0.075,0.106l0.12,0.026   l0.141-0.059l-0.003-0.17l0.062-0.031l-0.05-0.053l-0.29-0.161l-0.076-0.215h0.24l0.077,0.076l0.207,0.179l0.009,0.216l0.215,0.229   l0.08-0.313l0.148-0.081l0.028,0.256l0.145,0.159l0.29-0.005c0.056,0.145,0.106,0.291,0.15,0.44L42.381,28.048z M34.334,26.282   l0.146-0.069l0.131,0.031l-0.045,0.177l-0.142,0.045L34.334,26.282z M35.105,26.697v0.114h-0.332l-0.125-0.034l0.031-0.08   l0.16-0.065h0.218v0.065H35.105z M35.259,26.857v0.11l-0.083,0.054l-0.104,0.019c0,0,0-0.166,0-0.183H35.259z M35.165,26.812   v-0.131l0.114,0.104L35.165,26.812z M35.217,27.078v0.107l-0.079,0.08h-0.176l0.027-0.121l0.083-0.007l0.017-0.042L35.217,27.078z    M34.649,26.995l0.128-0.138h0.184l-0.235,0.328l-0.097-0.052L34.649,26.995z M35.528,27.04v0.108h-0.176l-0.048-0.07v-0.1h0.014   L35.528,27.04z M35.366,26.893l0.05-0.053l0.085,0.053l-0.068,0.056L35.366,26.893z M42.471,28.328l0.018-0.021   c0.007,0.031,0.015,0.062,0.022,0.095L42.471,28.328z"/></g><path fill="#000000" d="M54.858,41.068c-6.903,0-12.499,5.595-12.499,12.498c0,6.903,5.595,12.499,12.499,12.499  c6.902,0,12.498-5.596,12.498-12.499C67.356,46.663,61.761,41.068,54.858,41.068z"/><path fill="#000000" d="M62.174,33.502c-1.346,0-2.436,1.091-2.436,2.436s1.09,2.436,2.436,2.436s2.436-1.091,2.436-2.436  S63.52,33.502,62.174,33.502z M61.037,36.813c-0.24,0-0.438-0.196-0.438-0.438c0-0.241,0.197-0.437,0.438-0.437  c0.242,0,0.438,0.196,0.438,0.437C61.475,36.617,61.279,36.813,61.037,36.813z M61.912,35.938c-0.242,0-0.438-0.196-0.438-0.438  s0.195-0.437,0.438-0.437c0.24,0,0.438,0.195,0.438,0.437S62.152,35.938,61.912,35.938z M62.611,37.688  c-0.242,0-0.438-0.196-0.438-0.438c0-0.241,0.195-0.437,0.438-0.437c0.24,0,0.438,0.196,0.438,0.437  C63.049,37.492,62.852,37.688,62.611,37.688z M63.572,35.908c-0.27,0-0.488-0.218-0.488-0.487s0.219-0.487,0.488-0.487  c0.268,0,0.486,0.218,0.486,0.487S63.84,35.908,63.572,35.908z"/><circle fill="#000000" cx="25.099" cy="43.082" r="2.013"/><path fill="#000000" d="M78.445,65.629c0,1.9-1.539,3.442-3.443,3.442c-1.9,0-3.441-1.543-3.441-3.442  c0-1.902,1.541-3.443,3.441-3.443C76.906,62.186,78.445,63.727,78.445,65.629z"/><circle fill="#000000" cx="85.139" cy="89.342" r="4.144"/><circle fill="#000000" cx="21.491" cy="12.874" r="4.144"/><g><path fill="#000000" d="M34.765,69.906c-0.027,0.376-0.077,0.802-0.23,1.32c0.484,1.16,0.462,2.181-0.061,2.95   c-1.254,1.846-4.884,1.56-9.62-1.66c-4.736-3.219-6.561-6.654-5.305-8.501c0.412-0.606,1.413-0.886,2.325-0.983   c0.297-0.318,0.515-0.503,1.056-0.782c-2.271-0.562-4.539-0.561-5.254,0.492c-1.383,2.036,1.728,6.562,6.95,10.112   c5.222,3.549,10.577,4.775,11.961,2.739C37.38,74.426,36.48,72.059,34.765,69.906z"/><path fill="#000000" d="M19.755,66.582c1.357,3.154,7.458,8.28,11.858,8.394c2.168-1.699,3.33-4.524,2.768-7.414   c-0.797-4.109-4.775-6.795-8.885-5.998C22.724,62.102,20.601,64.086,19.755,66.582z"/><path fill="#000000" d="M19.329,68.626c-0.042,0.64-0.004,1.296,0.124,1.954c0.797,4.11,4.776,6.796,8.885,5.998   c0.611-0.118,1.189-0.307,1.73-0.556C25.605,74.731,20.83,70.631,19.329,68.626z"/></g></svg>