<svg xmlns="http://www.w3.org/2000/svg" xmlns:xlink="http://www.w3.org/1999/xlink" version="1.1" x="0px" y="0px" viewBox="0 0 100 125" enable-background="new 0 0 100 100" xml:space="preserve"><g><path d="M49.131,47.338c-3.929,0-7.125,3.196-7.125,7.125s3.196,7.125,7.125,7.125s7.125-3.196,7.125-7.125   S53.06,47.338,49.131,47.338z M49.131,58.588c-2.274,0-4.125-1.851-4.125-4.125s1.851-4.125,4.125-4.125s4.125,1.851,4.125,4.125   S51.405,58.588,49.131,58.588z"/><path d="M63.854,62.963c0.276-0.478,0.112-1.09-0.366-1.366c-0.478-0.278-1.09-0.113-1.366,0.366   c-1.258,2.178-3.05,4.015-5.183,5.311c-0.472,0.287-0.622,0.902-0.335,1.374c0.188,0.31,0.518,0.48,0.855,0.48   c0.177,0,0.356-0.047,0.519-0.146C60.396,67.513,62.429,65.431,63.854,62.963z"/><path d="M54.835,68.336c-3.432,1.409-7.235,1.504-10.711,0.268c-0.519-0.185-1.093,0.086-1.277,0.607   c-0.185,0.52,0.087,1.092,0.607,1.277c1.836,0.653,3.752,0.978,5.668,0.978c2.197,0,4.396-0.428,6.473-1.28   c0.511-0.21,0.755-0.794,0.545-1.305C55.931,68.37,55.344,68.129,54.835,68.336z"/><path d="M41.631,67.453c-3.47-2.003-5.952-5.238-6.989-9.107c-0.598-2.232-0.657-4.518-0.229-6.721   c2.097,0.349,4.283-0.588,5.408-2.538c1.451-2.512,0.589-5.721-1.922-7.17c-2.51-1.449-5.719-0.59-7.168,1.92   c-1.421,2.461-0.614,5.583,1.78,7.071c-0.56,2.6-0.509,5.312,0.199,7.955c1.176,4.386,3.988,8.052,7.921,10.322   c0.157,0.091,0.329,0.134,0.499,0.134c0.346,0,0.682-0.179,0.867-0.5C42.273,68.341,42.109,67.729,41.631,67.453z M34.499,46.022   c0.679-1.174,1.74-2.061,2.995-2.568c1.52,1.121,2,3.215,1.034,4.887s-3.02,2.303-4.748,1.547   C33.59,48.546,33.825,47.188,34.499,46.022z"/><path d="M20.128,39.766c-0.497-0.234-1.096-0.02-1.33,0.48c-1.704,3.628-2.734,7.487-3.062,11.467   c-0.045,0.55,0.364,1.033,0.915,1.079c0.028,0.002,0.056,0.003,0.083,0.003c0.516,0,0.953-0.396,0.996-0.918   c0.308-3.742,1.276-7.369,2.879-10.781C20.843,40.596,20.628,40,20.128,39.766z"/><path d="M38.545,23.718c-0.195-0.517-0.772-0.778-1.289-0.582c-7.119,2.69-13.165,7.8-17.025,14.388   c-0.278,0.477-0.119,1.089,0.357,1.368c0.159,0.093,0.333,0.137,0.505,0.137c0.344,0,0.678-0.177,0.864-0.495   c3.629-6.195,9.313-10.999,16.006-13.528C38.479,24.812,38.74,24.234,38.545,23.718z"/><path d="M45.845,33.626c0.071,0,0.145-0.007,0.217-0.023c2.935-0.648,5.923-0.671,8.879-0.068c0.54,0.109,1.069-0.239,1.18-0.78   s-0.238-1.069-0.779-1.18c-3.234-0.659-6.502-0.633-9.711,0.075c-0.539,0.119-0.88,0.653-0.761,1.192   C44.973,33.309,45.386,33.626,45.845,33.626z"/><path d="M66.21,39.821c0.196,0.21,0.463,0.316,0.729,0.316c0.245,0,0.49-0.089,0.684-0.27c0.403-0.377,0.424-1.01,0.046-1.414   c-2.56-2.733-5.79-4.83-9.341-6.061c-0.528-0.181-1.093,0.095-1.272,0.617c-0.182,0.522,0.095,1.091,0.616,1.272   C60.918,35.408,63.87,37.324,66.21,39.821z"/><path d="M69.765,41.033c-0.318-0.451-0.94-0.562-1.394-0.245c-0.452,0.317-0.562,0.94-0.245,1.393   c3.269,4.662,4.525,10.317,3.54,15.925c-0.795,4.522-2.991,8.56-6.25,11.674c-1.163-0.77-2.725-0.804-3.937,0.044   c-1.585,1.111-1.968,3.29-0.858,4.875c1.106,1.582,3.289,1.968,4.872,0.859c1.374-0.961,1.842-2.734,1.217-4.221   C74.962,63.528,76.477,50.61,69.765,41.033z M63.831,73.178c-0.74,0.518-1.632,0.754-2.533,0.707   c-0.603-1.106-0.304-2.505,0.753-3.243c1.053-0.74,2.474-0.541,3.303,0.401C65.092,71.908,64.566,72.662,63.831,73.178z"/><path d="M84.87,44.87c-0.581-2.17-2.654-3.527-4.821-3.296c-2.804-6.767-7.718-12.399-14.168-16.124   c-7.75-4.474-16.779-5.664-25.421-3.346c-0.533,0.143-0.85,0.691-0.707,1.225c0.143,0.534,0.692,0.853,1.225,0.707   c8.126-2.177,16.615-1.06,23.903,3.146c6.029,3.481,10.632,8.735,13.277,15.048c-1.639,1.021-2.506,3.008-1.981,4.968   c0.644,2.402,3.111,3.826,5.512,3.182C84.089,49.737,85.514,47.271,84.87,44.87z M81.002,49.202c-1.6,0.242-3.16-0.736-3.589-2.334   c-0.429-1.6,0.435-3.227,1.94-3.816c0.929,0.697,1.609,1.664,1.908,2.779C81.562,46.954,81.455,48.134,81.002,49.202z"/><circle cx="25.254" cy="76.489" r="1.012"/><circle cx="28.756" cy="79.748" r="1.518"/><circle cx="79.616" cy="65.712" r="1.012"/></g>e</svg>