<svg xmlns="http://www.w3.org/2000/svg" xmlns:xlink="http://www.w3.org/1999/xlink" version="1.1" x="0px" y="0px" viewBox="0 0 100 125" enable-background="new 0 0 100 100" xml:space="preserve"><path fill="#000000" d="M87.1,11c0,0-6.2,2.2-7.4,2.7c-1.2,0.6,0,0.9,0,0.9l-1.1,0.7L27.5,34l0,0c-0.3,0.1-3.3,0.4-3.3,0.4l-1.1,0.4  l-0.4-0.3l5.4-2l-1-2.7l-9.8,3.6l0.2,0.6l-2.1,0.8l0.6,1.5l2.1-0.8l0.2,0.6l2.5-0.9c0.5,0.1,1,0.2,1.3,0.7l0.4,0.9l-8.8,3.3  l-0.4,0.1l-0.9-2.5l-0.4,0.2L11.6,37L10,37.6l0.3,0.9L10,38.6l0.9,2.5l-0.8,0.3l4.9,2.4l-0.4-1l8.9-3.3l0.5,1.2c0,0,8.3-3,18.5-6.6  l4.3,3.8l0,4h-1.9L26.3,88.1l0.4,0.2v1L26,89.5v0.6h2.3v-1l1.2,0.6l8.3-21.2l9.2-0.7l0.1,21.3H50l0-21.3l9.8,0.7l8.3,21.2l1.2-0.6v1  h2.3v-0.6l-0.7-0.2v-1l0.4-0.2L52.5,41.9h-2.4l0-4.2L45.7,33c15.6-5.6,34.1-12.1,34.9-12.3c1.4-0.2,2,0.8,2,0.8l7.4-2.6  C89.8,13,87.1,11,87.1,11z M50.1,43.8h0.7v1.9l8.3,21.1L50,66.2L50.1,43.8z M47.1,66.3l-8.6,0.5l8.3-21.1v-1.9H47L47.1,66.3z"/><text x="0" y="115" fill="#000000" font-size="5px" font-weight="bold" font-family="'Helvetica Neue', Helvetica, Arial-Unicode, Arial, Sans-serif">Created by James Viola</text><text x="0" y="120" fill="#000000" font-size="5px" font-weight="bold" font-family="'Helvetica Neue', Helvetica, Arial-Unicode, Arial, Sans-serif">from the Noun Project</text></svg>