<svg xmlns="http://www.w3.org/2000/svg" xmlns:xlink="http://www.w3.org/1999/xlink" version="1.1" x="0px" y="0px" viewBox="0 0 90 112.5" enable-background="new 0 0 90 90" xml:space="preserve"><path d="M81.529,29.192c-0.103-0.196-0.277-0.344-0.488-0.412l-5.895-1.876c-0.436-0.137-0.904,0.103-1.044,0.541l-0.495,1.552  l-13.148-4.19l0.146-0.461c0.14-0.438-0.102-0.905-0.539-1.044l-22.009-7.02l0.378-1.187c0.067-0.21,0.048-0.438-0.053-0.634  c-0.102-0.196-0.276-0.344-0.487-0.41L19.825,8.292l1.157-3.628c0.067-0.21,0.049-0.438-0.053-0.634  c-0.102-0.196-0.276-0.344-0.487-0.411l-6.453-2.057c-0.212-0.067-0.438-0.049-0.634,0.053c-0.196,0.102-0.344,0.276-0.41,0.487  L4.928,27.254c-0.141,0.438,0.102,0.905,0.54,1.044l6.449,2.057c0.083,0.026,0.167,0.04,0.252,0.04c0.132,0,0.263-0.031,0.382-0.092  c0.196-0.102,0.344-0.276,0.41-0.487l1.157-3.626l18.071,5.761c0.084,0.027,0.169,0.04,0.252,0.04c0.353,0,0.68-0.226,0.792-0.58  l0.379-1.188l7.491,2.388c-3.769,0.964-6.576,4.362-6.576,8.428c0,2.763,1.316,5.2,3.327,6.799L20.954,86.521  c-0.042,0.095-0.059,0.195-0.064,0.294h-2.679c-0.46,0-0.832,0.372-0.832,0.831s0.372,0.831,0.832,0.831h50.092  c0.459,0,0.831-0.372,0.831-0.831s-0.372-0.831-0.831-0.831h-4.638L48.455,48c2.128-1.591,3.527-4.106,3.527-6.962  c0-2.159-0.818-4.112-2.12-5.637l5.761,1.836c0.085,0.027,0.17,0.04,0.253,0.04c0.353,0,0.681-0.226,0.793-0.58l0.147-0.462  l13.146,4.192l-1.031,3.238c-0.14,0.438,0.102,0.905,0.539,1.044l5.895,1.88c0.083,0.026,0.168,0.04,0.253,0.04  c0.132,0,0.263-0.032,0.383-0.093c0.195-0.103,0.344-0.276,0.41-0.487l5.171-16.224C81.649,29.616,81.629,29.388,81.529,29.192z   M11.63,28.518l-4.864-1.551l7.511-23.568l4.868,1.551l-1.155,3.624c0,0.001-0.001,0.002-0.002,0.004l-5.202,16.313  c0,0.001,0,0.004,0,0.006L11.63,28.518z M31.902,30.113l-17.279-5.508l4.696-14.729l17.279,5.506L31.902,30.113z M39.271,48.753  c0.964,0.5,2.023,0.814,3.153,0.924v37.139H22.641L39.271,48.753z M46.402,47.324c-0.713,0.358-1.489,0.59-2.313,0.688v-6.593  L46.402,47.324z M42.424,48.014c-0.893-0.106-1.729-0.374-2.487-0.781l2.487-5.695V48.014z M61.877,86.815H44.089V49.675  c1.039-0.101,2.021-0.365,2.922-0.799L61.877,86.815z M47.819,46.381l-3.578-9.129c-0.141-0.36-0.506-0.549-0.872-0.507  c-0.038-0.005-0.073-0.021-0.109-0.021c-0.001,0-0.003-0.001-0.003-0.001c-0.026,0-0.048,0.013-0.073,0.014  c-0.083,0.008-0.166,0.018-0.241,0.049c-0.046,0.019-0.082,0.052-0.123,0.078c-0.049,0.031-0.101,0.055-0.143,0.097  c-0.055,0.054-0.093,0.122-0.132,0.189c-0.015,0.026-0.038,0.044-0.05,0.072l-0.003,0.007c0,0.001-0.001,0.003-0.001,0.003  l-3.945,9.027c-1.433-1.293-2.352-3.145-2.352-5.222c0-3.895,3.167-7.063,7.061-7.063c3.896,0,7.066,3.168,7.066,7.063  C50.319,43.183,49.335,45.084,47.819,46.381z M34.12,28.638l3.433-10.771l21.215,6.767l-3.432,10.766L34.12,28.638z M57.321,34.65  l2.633-8.259l13.148,4.189l-2.635,8.262L57.321,34.65z M75.078,44.752l-4.31-1.375l0.978-3.065c0.031-0.053,0.07-0.101,0.089-0.161  l3.136-9.848c0.018-0.054,0.012-0.108,0.019-0.162l0.446-1.4l4.309,1.373L75.078,44.752z"/><text x="0" y="105" fill="#000000" font-size="5px" font-weight="bold" font-family="'Helvetica Neue', Helvetica, Arial-Unicode, Arial, Sans-serif">Created by Julian Kerr</text><text x="0" y="110" fill="#000000" font-size="5px" font-weight="bold" font-family="'Helvetica Neue', Helvetica, Arial-Unicode, Arial, Sans-serif">from the Noun Project</text></svg>