<?xml version="1.0" encoding="UTF-8"?>
<svg width="580" height="400" xmlns="http://www.w3.org/2000/svg">
 <!-- Created with Method Draw - http://github.com/duopixel/Method-Draw/ -->

 <g>
  <title>background</title>
  <rect x="-1" y="-1" width="582" height="402" id="canvas_background" fill="#fff"/>
  <g id="canvasGrid" display="none">
   <rect id="svg_1" width="100%" height="100%" x="0" y="0" stroke-width="0" fill="url(#gridpattern)"/>
  </g>
 </g>
 <g>
  <title>Layer 1</title>
  <path fill="#000" stroke="#000000" stroke-width="1.5" opacity="0.5" d="m271,285" id="svg_11"/>
  <ellipse fill="#000" stroke="#000000" stroke-width="1.5" cx="301" cy="327" id="svg_12" rx="62" ry="62"/>
  <g id="svg_18" stroke="null">
   <path d="m127.558563,50.111111c-13.538025,0 -24.680115,2.59256 -32.950439,7.233021c-8.270294,4.640438 -13.816986,11.081467 -17.680687,18.48436c-7.727409,14.80574 -9.111664,34.071457 -10.648598,53.443954c-1.536842,19.372421 -2.95509,38.979691 -9.84491,54.046646c-3.444958,7.533539 -8.427551,13.79068 -14.867908,18.484406c-6.44035,4.693756 -14.230282,7.736664 -25.114632,9.04129l2.009211,6.429321c13.31604,-1.5961 23.947691,-5.769592 31.744871,-11.452271c7.797218,-5.682648 13.18259,-12.816254 16.877018,-20.895386c7.388847,-16.158325 8.710831,-36.092468 10.246788,-55.45314c1.53595,-19.36058 3.190987,-38.11676 10.246773,-51.635605c3.527863,-6.75956 8.120422,-12.111069 14.466034,-15.671597c6.345573,-3.56044 14.349663,-5.625629 25.516479,-5.625629c11.074524,0 18.786438,1.9939 25.114624,5.82658c6.328156,3.832691 10.995605,9.647892 14.466034,16.877018c6.940765,14.45826 8.635559,34.557739 10.045837,54.649445c1.410339,20.091705 2.719757,40.175598 10.246765,55.85495c3.763519,7.83963 9.093628,14.732422 17.2789,19.68988c8.185272,4.957428 19.32016,7.835754 32.950378,7.835754c13.630249,0 24.765137,-2.878326 32.950409,-7.835754c8.185242,-4.957458 13.515381,-11.85025 17.27887,-19.68988c7.526947,-15.679352 8.836426,-35.763245 10.246765,-55.85495c1.410217,-20.091705 3.104919,-40.191185 10.045868,-54.649445c3.470367,-7.229126 8.137848,-13.044327 14.466034,-16.877018c6.328094,-3.83268 14.0401,-5.82658 25.114563,-5.82658c11.074585,0 18.786438,1.9939 25.114685,5.82658c6.328308,3.832691 10.995667,9.647892 14.466064,16.877018c6.940735,14.45826 8.635559,34.557739 10.045837,54.649445c1.410217,20.091705 2.719727,40.175598 10.246765,55.85495c3.763489,7.83963 9.093506,14.732422 17.27887,19.68988c8.185181,4.957428 19.320068,7.835754 32.950317,7.835754c13.630249,0 24.765137,-2.878326 32.9505,-7.835754c8.185181,-4.957458 13.515381,-11.85025 17.278809,-19.68988c7.526978,-15.679352 8.836487,-35.763245 10.246826,-55.85495c1.410278,-20.091705 3.10498,-40.191185 10.045776,-54.649445c3.470459,-7.229126 8.137939,-13.044327 14.466003,-16.877018c5.412781,-3.27816 12.018616,-5.134983 20.694519,-5.625713l0,-6.429317c-11.613953,0.56424 -21.262756,3.233299 -28.530212,7.63488c-8.185242,4.957371 -13.515381,11.850147 -17.27887,19.689838c-7.527039,15.679298 -8.836426,35.763237 -10.246765,55.85495c-1.410339,20.091705 -3.105042,40.191162 -10.045898,54.649445c-3.470337,7.229065 -8.137817,13.044312 -14.466003,16.877045c-6.328186,3.832703 -14.0401,5.826599 -25.114685,5.826599c-11.074524,0 -18.786438,-1.993896 -25.114624,-5.826599c-6.328125,-3.832733 -10.995605,-9.64798 -14.466003,-16.877045c-6.940735,-14.458282 -8.635559,-34.557739 -10.045898,-54.649445c-1.410217,-20.091713 -2.719788,-40.175652 -10.246704,-55.85495c-3.763428,-7.839691 -9.093567,-14.732468 -17.278809,-19.689838c-8.185364,-4.95747 -19.320129,-7.8358 -32.9505,-7.8358c-13.630249,0 -24.765106,2.87833 -32.950378,7.8358c-8.185242,4.957371 -13.515259,11.850147 -17.27887,19.689838c-7.526947,15.679298 -8.836426,35.763237 -10.246765,55.85495c-1.410309,20.091705 -3.105011,40.191162 -10.045868,54.649445c-3.470367,7.229065 -8.137848,13.044312 -14.466034,16.877045c-6.328156,3.832703 -14.039917,5.826599 -25.114594,5.826599c-11.074585,0 -18.786499,-1.993896 -25.114685,-5.826599c-6.328094,-3.832733 -10.995636,-9.64798 -14.466003,-16.877045c-6.940765,-14.458282 -8.635559,-34.557739 -10.045837,-54.649445c-1.410278,-20.091713 -2.719757,-40.175652 -10.246796,-55.85495c-3.763458,-7.839691 -9.093567,-14.732468 -17.278839,-19.689838c-8.185303,-4.95747 -19.320099,-7.8358 -32.950378,-7.8358z" fill="#000000" id="svg_17"/>
  </g>
 </g>
</svg>