<svg xmlns="http://www.w3.org/2000/svg" xmlns:xlink="http://www.w3.org/1999/xlink" version="1.1" x="0px" y="0px" viewBox="0 0 90 112.5" enable-background="new 0 0 90 90" xml:space="preserve"><g><path d="M15.1,60.3c-0.6,0-1.2-0.2-1.7-0.7c-0.9-0.9-0.9-2.5,0-3.4c1-1,0.7-2-0.6-4.9c-1.3-2.9-3.2-7.3,0.6-11.1   c0.9-0.9,2.5-0.9,3.4,0s0.9,2.5,0,3.4c-1.3,1.3-1.1,2.5,0.4,5.8c1.3,2.9,3,6.8-0.4,10.2C16.3,60.1,15.7,60.3,15.1,60.3z"/><path d="M40,71.3c-0.6,0-1.2-0.2-1.7-0.7c-0.9-0.9-0.9-2.5,0-3.4c1-1,0.7-2-0.6-4.9c-1.3-2.9-3.2-7.3,0.6-11.1   c0.9-0.9,2.5-0.9,3.4,0s0.9,2.5,0,3.4c-1.3,1.3-1.1,2.5,0.4,5.8c1.3,2.9,3,6.8-0.4,10.2C41.3,71,40.7,71.3,40,71.3z"/><path d="M50.9,63.3c-0.6,0-1.2-0.2-1.7-0.7c-0.9-0.9-0.9-2.5,0-3.4c1-1,0.7-2-0.6-4.9c-1.3-2.9-3.2-7.3,0.6-11.1   c0.9-0.9,2.5-0.9,3.4,0s0.9,2.5,0,3.4c-1.3,1.3-1.1,2.5,0.4,5.8c1.3,2.9,3,6.8-0.4,10.2C52.1,63,51.5,63.3,50.9,63.3z"/><path d="M61.2,45.2c-0.6,0-1.2-0.2-1.7-0.7c-0.9-0.9-0.9-2.5,0-3.4c1-1,0.7-2-0.6-4.9c-1.3-2.9-3.2-7.3,0.6-11.1   c0.9-0.9,2.5-0.9,3.4,0c0.9,0.9,0.9,2.5,0,3.4c-1.3,1.3-1.1,2.5,0.4,5.8c1.3,2.9,3,6.8-0.4,10.2C62.4,45,61.8,45.2,61.2,45.2z"/><path d="M34.9,40.7l1-1c0.9-0.9,0.9-2.5,0-3.4c-0.9-0.9-2.5-0.9-3.4,0l-1,1l-1-1c-0.9-0.9-2.5-0.9-3.4,0c-0.9,0.9-0.9,2.5,0,3.4   l1,1l-1,1c-0.9,0.9-0.9,2.5,0,3.4c0.5,0.5,1.1,0.7,1.7,0.7s1.2-0.2,1.7-0.7l1-1l1,1c0.5,0.5,1.1,0.7,1.7,0.7s1.2-0.2,1.7-0.7   c0.9-0.9,0.9-2.5,0-3.4L34.9,40.7z"/><path d="M75.3,58.1l1-1c0.9-0.9,0.9-2.5,0-3.4c-0.9-0.9-2.5-0.9-3.4,0l-1,1l-1-1c-0.9-0.9-2.5-0.9-3.4,0c-0.9,0.9-0.9,2.5,0,3.4   l1,1l-1,1c-0.9,0.9-0.9,2.5,0,3.4c0.5,0.5,1.1,0.7,1.7,0.7c0.6,0,1.2-0.2,1.7-0.7l1-1l1,1c0.5,0.5,1.1,0.7,1.7,0.7   c0.6,0,1.2-0.2,1.7-0.7c0.9-0.9,0.9-2.5,0-3.4L75.3,58.1z"/><path d="M50.8,38.1c-0.6,0-1.2-0.3-1.7-0.7c-0.4-0.5-0.7-1.1-0.7-1.7c0-0.6,0.3-1.2,0.7-1.7c1-0.9,2.5-0.9,3.4,0   c0.4,0.4,0.7,1.1,0.7,1.7c0,0.6-0.3,1.3-0.7,1.7C52,37.9,51.4,38.1,50.8,38.1z"/><path d="M22.3,31.8c-0.6,0-1.2-0.3-1.7-0.7c-0.4-0.4-0.7-1.1-0.7-1.7c0-0.6,0.3-1.2,0.7-1.7c0.9-0.9,2.5-0.9,3.4,0   c0.4,0.4,0.7,1.1,0.7,1.7c0,0.6-0.3,1.2-0.7,1.7C23.5,31.6,22.9,31.8,22.3,31.8z"/><path d="M29.7,57c-0.6,0-1.2-0.3-1.7-0.7c-0.4-0.4-0.7-1.1-0.7-1.7c0-0.6,0.3-1.2,0.7-1.7c0.9-0.9,2.5-0.9,3.4,0   c0.4,0.4,0.7,1.1,0.7,1.7c0,0.6-0.3,1.2-0.7,1.7C31,56.8,30.4,57,29.7,57z"/><path d="M60.3,55c-0.6,0-1.2-0.3-1.7-0.7c-0.4-0.4-0.7-1.1-0.7-1.7c0-0.6,0.2-1.2,0.7-1.7c0.9-0.9,2.5-0.9,3.4,0   c0.5,0.5,0.7,1.1,0.7,1.7c0,0.6-0.3,1.2-0.7,1.7C61.5,54.8,60.9,55,60.3,55z"/><path d="M58.9,67.2c-0.6,0-1.2-0.3-1.7-0.7c-0.4-0.4-0.7-1-0.7-1.7c0-0.6,0.3-1.2,0.7-1.7c0.9-0.9,2.5-0.9,3.4,0   c0.4,0.5,0.7,1.1,0.7,1.7c0,0.6-0.3,1.2-0.7,1.7C60.1,66.9,59.5,67.2,58.9,67.2z"/><path d="M71,44.3c-0.6,0-1.2-0.3-1.7-0.7c-0.5-0.4-0.7-1.1-0.7-1.7c0-0.6,0.3-1.2,0.7-1.7c0.9-0.9,2.5-0.9,3.4,0   c0.4,0.4,0.7,1.1,0.7,1.7c0,0.6-0.3,1.2-0.7,1.7C72.3,44.1,71.7,44.3,71,44.3z"/><path d="M77.8,29.2H61.2c-1.3,0-2.4-1.1-2.4-2.4c0-1.3,1.1-2.4,2.4-2.4h16.6c1.3,0,2.4,1.1,2.4,2.4C80.2,28.2,79.1,29.2,77.8,29.2z   "/><path d="M50.7,29.2H12.2c-1.3,0-2.4-1.1-2.4-2.4c0-1.3,1.1-2.4,2.4-2.4h38.5c1.3,0,2.4,1.1,2.4,2.4C53.1,28.2,52,29.2,50.7,29.2z"/></g><text x="0" y="105" fill="#000000" font-size="5px" font-weight="bold" font-family="'Helvetica Neue', Helvetica, Arial-Unicode, Arial, Sans-serif">Created by Tommy Lau</text><text x="0" y="110" fill="#000000" font-size="5px" font-weight="bold" font-family="'Helvetica Neue', Helvetica, Arial-Unicode, Arial, Sans-serif">from the Noun Project</text></svg>